<svg xmlns="http://www.w3.org/2000/svg" xmlns:xlink="http://www.w3.org/1999/xlink"
  version="1.1" width="19.997222900390625" height="20" viewBox="0 0 19.997222900390625 20">
  <g>
    <g>
      <path
        d="M12.3083,12.2989C13.8759,10.7379,16.4105,10.7379,17.9781,12.2989C18.0346,12.3553,18.0816,12.4211,18.138,12.4869C18.1662,11.5372,18.185,10.4183,18.185,9.0831C18.185,5.40661,18.0534,3.28157,17.9311,2.12503C17.8465,1.3446,17.3388,0.724015,16.5677,0.564167C15.3548,0.310292,13.0699,0,9.0925,0C5.11512,0,2.83024,0.310292,1.61728,0.564167C0.846251,0.724015,0.338501,1.3446,0.253875,2.12503C0.131639,3.28157,0,5.40661,0,9.0831C0,12.7596,0.131639,14.8846,0.253875,16.0412C0.338501,16.8216,0.846251,17.4422,1.61728,17.602C2.83024,17.8559,5.11512,18.1662,9.0925,18.1662C10.3901,18.1662,11.4902,18.1286,12.4493,18.0816L12.3083,17.9687C10.7473,16.4011,10.7473,13.8665,12.3083,12.2989Z"
        fill-opacity="1" />
    </g>
    <g>
      <path
        d="M15.7487265625,10.7850078125C15.3632265625,10.7850078125,15.0435265625,10.4653078125,15.0435265625,10.0797978125C15.0461265625,6.7900178125,12.3813265625,4.1210278124999995,9.0915165625,4.1184278125C5.8017365625,4.1158278125,3.1327465625,6.7806178125,3.1301465625000002,10.070397812500001C3.1301465625000002,10.4559078125,2.8104465625,10.7756078125,2.4249355625,10.7756078125C2.0394215625,10.7756078125,1.7197265625,10.4559078125,1.7197265625,10.070397812500001C1.7197265625,6.0083878125000005,5.0201065625000005,2.7080078125,9.082116562500001,2.7080078125C12.4483265625,2.7080078125,15.3820265625,4.9834878125,16.2188265625,8.236847812499999C16.3693265625,8.8386278125,16.444526562500002,9.4498078125,16.444526562500002,10.070397812500001C16.444526562500002,10.4559078125,16.124826562499997,10.7756078125,15.7393265625,10.7756078125L15.7487265625,10.7850078125Z"
        fill="#FFFFFF" fill-opacity="1" />
    </g>
    <g>
      <path
        d="M19.802125463867185,18.7959796875L18.419915463867188,17.4137696875C19.46362546386719,15.9187296875,19.360195463867186,13.8783196875,18.12842546386719,12.4867096875C18.10962546386719,12.4641396875,18.090815463867187,12.4406296875,18.07483546386719,12.418069687500001C18.042865463867187,12.3766996875,18.011835463867186,12.3353196875,17.968585463867186,12.2986496875C16.40092546386719,10.7376886875,13.866345463867187,10.7376886875,12.298695463867187,12.2986496875C10.737734463867188,13.8663096875,10.737734463867188,16.4008896875,12.298695463867187,17.968539687499998C12.330665463867188,17.9995596875,12.361695463867187,18.023069687499998,12.392725463867187,18.0456396875L12.439735463867187,18.0813696875C13.201365463867187,18.777179687500002,14.160445463867187,19.1344796875,15.128935463867187,19.1344796875C15.928175463867188,19.1344796875,16.72741546386719,18.8900096875,17.413815463867188,18.4104696875L18.79602546386719,19.792679687499998C18.93706546386719,19.933719687500002,19.115715463867186,19.9995396875,19.294375463867187,19.9995396875C19.473025463867188,19.9995396875,19.65168546386719,19.933719687500002,19.792725463867185,19.792679687499998C20.065405463867187,19.5199996875,20.065405463867187,19.068659687500002,19.792725463867185,18.7959796875L19.802125463867185,18.7959796875ZM13.304795463867187,13.2953496875C13.812545463867188,12.7875996875,14.480145463867188,12.5337196875,15.138345463867187,12.5337196875C15.796535463867187,12.5337196875,16.473535463867186,12.7875996875,16.97188546386719,13.2953496875C17.987525463867186,14.3104196875,17.987525463867186,15.9567796875,16.97188546386719,16.9718396875C15.956385463867187,17.9873396875,14.282685463867187,17.9497296875,13.295395463867187,16.9718396875C12.308105463867188,15.993949687499999,12.279895463867188,14.3108496875,13.295395463867187,13.2953496875L13.304795463867187,13.2953496875Z"
        fill-opacity="1" />
    </g>
    <g>
      <path
        d="M10.04119626815796,7.352844C10.27626626815796,6.882705,10.92505626815796,7.0519551,10.896846268157958,7.587914C10.83102626815796,8.659835,10.72759626815796,10.013835,10.56774626815796,11.339625C11.009676268157959,11.828575,11.197736268157959,12.533785,11.01908626815796,13.229595C10.73699626815796,14.310915,9.636876268157959,14.959705,8.57435626815796,14.668215C7.511843268157959,14.376735,6.881855268157959,13.257795,7.163939168157959,12.176475C7.342592268157959,11.480675,7.859745268157959,10.972925,8.48032626815796,10.766055C8.98807626815796,9.534295,9.571056268157959,8.311925,10.04119626815796,7.352844Z"
        fill="#FFFFFF" fill-opacity="1" />
    </g>
  </g>
</svg>