<svg xmlns="http://www.w3.org/2000/svg" xmlns:xlink="http://www.w3.org/1999/xlink"
  version="1.1" width="19.470916748046875" height="20" viewBox="0 0 19.470916748046875 20">
  <g>
    <g>
      <path
        d="M18.9398,7.800380517578125C18.9398,7.800380517578125,10.8263,0.424234517578125,10.8263,0.424234517578125C10.5283,0.151348517578125,10.1389,0.0000031150781249999994,9.7348,0.000030521299565C9.33074,0.000057927478125,8.94132,0.151456517578125,8.64334,0.424382517578125C8.64334,0.424382517578125,0.531223,7.800330517578125,0.531223,7.800330517578125C0.364095,7.952530517578125,0.23054,8.137910517578124,0.13909,8.344620517578125C0.0476407,8.551350517578125,0.000306061,8.774860517578125,0.000108844,9.000920517578125C0.000108844,9.000920517578125,0.000108844,18.340330517578124,0.000108844,18.340330517578124C-0.004544,18.748130517578126,0.140119,19.143530517578125,0.40683,19.451930517578123C0.558775,19.624630517578126,0.74588,19.762830517578124,0.955608,19.857430517578123C1.16533,19.951830517578124,1.39284,20.000530517578124,1.62287,19.999930517578125C1.62287,19.999930517578125,6.48679,19.999930517578125,6.48679,19.999930517578125C6.70196,19.999930517578125,6.90832,19.914430517578126,7.06045,19.762330517578125C7.21259,19.610130517578124,7.29807,19.403730517578126,7.29807,19.188630517578126C7.29807,19.188630517578126,7.29807,14.320230517578125,7.29807,14.320230517578125C7.29807,14.105030517578125,7.38355,13.898630517578125,7.5357,13.746530517578124C7.68783,13.594430517578125,7.89419,13.508930517578126,8.10935,13.508930517578126C8.10935,13.508930517578126,11.3545,13.508930517578126,11.3545,13.508930517578126C11.5696,13.508930517578126,11.776,13.594430517578125,11.9281,13.746530517578124C12.0803,13.898630517578125,12.1658,14.105030517578125,12.1658,14.320230517578125C12.1658,14.320230517578125,12.1658,19.188630517578126,12.1658,19.188630517578126C12.1658,19.403730517578126,12.2512,19.610130517578124,12.4034,19.762330517578125C12.5555,19.914430517578126,12.7619,19.999930517578125,12.977,19.999930517578125C12.977,19.999930517578125,17.8506,19.999930517578125,17.8506,19.999930517578125C18.117,20.003330517578124,18.3801,19.938530517578126,18.6145,19.811630517578124C18.8733,19.671930517578126,19.0896,19.464930517578125,19.2403,19.212430517578124C19.3911,18.960030517578126,19.4707,18.671330517578124,19.4709,18.377330517578127C19.4709,18.377330517578127,19.4709,9.000960517578125,19.4709,9.000960517578125C19.4706,8.774920517578124,19.4234,8.551420517578125,19.3319,8.344700517578126C19.2405,8.137990517578125,19.107,7.952610517578125,18.9398,7.800380517578125C18.9398,7.800380517578125,18.9398,7.800380517578125,18.9398,7.800380517578125C18.9398,7.800380517578125,18.9398,7.800380517578125,18.9398,7.800380517578125Z"
        fill-opacity="1" />
    </g>
  </g>
</svg>