<svg xmlns="http://www.w3.org/2000/svg" xmlns:xlink="http://www.w3.org/1999/xlink"
  version="1.1" width="19.924652099609375" height="20" viewBox="0 0 19.924652099609375 20">
  <g>
    <g>
      <path
        d="M19.9246,10.0018C19.9275,15.5356,15.4683,20.0058,9.95035,20C4.46329,19.9948,0.00866454,15.5384,0.00000809036,10.0491C-0.00691702,4.49479,4.39115,0.0476649,9.93881,0.0003428C15.4198,-0.045248,19.9218,4.46247,19.9246,10.0015L19.9246,10.0018ZM7.64715,3.36425C7.46709,3.35502,7.3586,3.47852,7.32743,3.64472C7.3032,3.77168,7.31243,3.90557,7.31474,4.03715C7.31589,4.15719,7.29512,4.24606,7.14507,4.25183C6.96617,4.25876,6.8496,4.35917,6.8496,4.54269C6.8496,4.72274,6.9604,4.83124,7.13815,4.84624C7.2778,4.85778,7.31243,4.92704,7.31589,5.05515C7.32051,5.20751,7.2628,5.26406,7.1116,5.2756C6.9477,5.28945,6.85883,5.39939,6.85883,5.5679C6.85883,5.73411,6.94078,5.83799,7.10698,5.86569C7.23741,5.88762,7.31589,5.93725,7.3182,6.09537C7.32166,6.27427,7.21202,6.26619,7.09313,6.29389C6.93962,6.32967,6.84383,6.44509,6.8496,6.60553C6.85421,6.74865,6.94193,6.85137,7.08621,6.88484C7.22009,6.91601,7.34129,6.93678,7.31474,7.12607C7.28358,7.34191,7.12314,7.26804,7.01003,7.26919C6.22287,7.27843,5.43455,7.28189,4.6471,7.28073C4.46704,7.28073,4.31931,7.30843,4.25467,7.50926C4.09424,8.00932,4.29045,8.31143,4.80522,8.28748C5.11917,8.27248,5.17457,8.38905,5.17226,8.67414C5.16072,10.5959,5.16764,12.5168,5.16533,14.4388C5.16533,14.9813,5.22535,14.9178,4.69442,14.9247C4.54438,14.927,4.38163,14.8878,4.28353,15.0644C4.04807,15.4882,4.28814,15.9257,4.76367,15.9257C6.44563,15.9268,8.12874,15.9257,9.81156,15.9257C11.5074,15.9257,13.202,15.9257,14.8918,15.9268C15.0718,15.9268,15.2533,15.943,15.3387,15.7225C15.5245,15.2459,15.3214,14.9062,14.8251,14.9328C14.4947,14.9501,14.4312,14.8312,14.4335,14.5265C14.4474,12.6172,14.4393,10.707,14.4405,8.79764C14.4405,8.209,14.4128,8.30364,14.9345,8.29672C15.3064,8.2921,15.3664,8.20784,15.3731,7.77358C15.3788,7.46771,15.3122,7.27265,14.9391,7.27958C14.175,7.29458,13.4121,7.28304,12.648,7.2715C12.5254,7.26919,12.3453,7.36153,12.296,7.14108C12.2472,6.92755,12.4146,6.92293,12.5461,6.87907C12.6858,6.83175,12.7576,6.73249,12.7516,6.58014C12.747,6.42663,12.6627,6.33083,12.5242,6.2962C12.4111,6.26735,12.2899,6.28928,12.2876,6.10576C12.2853,5.92455,12.3961,5.89108,12.53,5.85876C12.6766,5.82298,12.7527,5.72834,12.7527,5.57598C12.7527,5.42594,12.6812,5.31485,12.5381,5.28484C12.4042,5.25598,12.2899,5.25368,12.2876,5.06208C12.2864,4.87741,12.3799,4.85779,12.5254,4.83355C12.6627,4.81046,12.7516,4.70774,12.7542,4.55308C12.7565,4.42034,12.708,4.28646,12.5773,4.27953C12.2795,4.26453,12.2818,4.08216,12.2899,3.86633C12.2991,3.63087,12.2772,3.36656,11.969,3.37002C11.6505,3.37349,11.6655,3.64357,11.6724,3.87672C11.6736,3.92404,11.6701,3.97252,11.6724,4.01984C11.6805,4.15142,11.6655,4.25529,11.4912,4.25529C11.3088,4.25645,11.1888,4.35917,11.19,4.54038C11.1911,4.73198,11.3077,4.85317,11.5097,4.8474C11.6713,4.84278,11.6782,4.94089,11.6713,5.05631C11.6655,5.14749,11.6932,5.26291,11.5466,5.26637C11.3412,5.27099,11.1876,5.34947,11.1876,5.57368C11.1888,5.77682,11.34,5.8553,11.5212,5.88069C11.6655,5.90031,11.6759,5.99842,11.6724,6.115C11.6689,6.20618,11.6609,6.27889,11.542,6.2812C11.3342,6.28582,11.1853,6.38739,11.1876,6.60091C11.19,6.79482,11.3423,6.89408,11.5235,6.91024C11.6886,6.92524,11.6713,7.02797,11.6701,7.13646C11.6689,7.27958,11.5674,7.27381,11.4704,7.27381C11.1253,7.27496,10.7791,7.28074,10.4328,7.27035C10.3197,7.26688,10.1558,7.35114,10.1105,7.14916C10.0655,6.94371,10.2051,6.92178,10.3529,6.88715C10.5087,6.85022,10.5979,6.73595,10.5921,6.57321C10.5863,6.42432,10.4963,6.32621,10.3555,6.29505C10.2294,6.26735,10.0958,6.29274,10.1015,6.08614C10.1059,5.89339,10.2351,5.89108,10.3589,5.8553C10.5136,5.81029,10.6059,5.70295,10.5898,5.53905C10.5759,5.39593,10.4871,5.2883,10.3393,5.27791C10.1867,5.26753,10.1027,5.23521,10.1001,5.05285C10.0978,4.85779,10.2063,4.85432,10.3462,4.83701C10.4905,4.81854,10.5817,4.71697,10.5898,4.56924C10.5979,4.4065,10.5148,4.27492,10.3509,4.26568C10.1093,4.25299,10.0978,4.11333,10.1036,3.92866C10.1116,3.68166,10.1578,3.36195,9.78963,3.37118C9.4653,3.37811,9.493,3.68512,9.47684,3.92058C9.47338,3.9679,9.47569,4.01638,9.47569,4.0637C9.47453,4.15373,9.45837,4.23452,9.34872,4.24491C9.16405,4.26338,9.01631,4.32916,9.02209,4.54385C9.02786,4.74583,9.15366,4.83932,9.34757,4.84971C9.4653,4.85548,9.47799,4.93627,9.47453,5.02399C9.47107,5.11286,9.50569,5.23636,9.37296,5.25599C9.19175,5.28253,9.04171,5.33793,9.02439,5.54454C9.00593,5.77682,9.17675,5.84376,9.35796,5.89339C9.48146,5.92686,9.47338,6.02497,9.47569,6.12192C9.47799,6.22234,9.43875,6.27312,9.33256,6.28236C9.15944,6.29736,9.0394,6.38277,9.02324,6.5686C9.00477,6.78212,9.14789,6.86984,9.32218,6.90447C9.46645,6.93332,9.48376,7.01758,9.47338,7.13646C9.46299,7.27381,9.36488,7.27266,9.26678,7.27266C8.92167,7.27381,8.57541,7.27727,8.22915,7.27035C8.12527,7.26804,7.97984,7.33267,7.95099,7.14108C7.92444,6.96679,8.00293,6.91832,8.16221,6.89523C8.31572,6.8733,8.42652,6.75558,8.42767,6.59976C8.42883,6.42663,8.31341,6.3089,8.13912,6.28928C8.01447,6.27543,7.94753,6.25119,7.94522,6.10345C7.94291,5.94995,8.00755,5.89108,8.14605,5.86915C8.32149,5.84145,8.43344,5.73065,8.4219,5.5529C8.41036,5.37862,8.29956,5.26753,8.11373,5.27012C7.95676,5.27214,7.95099,5.17634,7.94753,5.05862C7.94407,4.93281,7.97523,4.85548,8.12066,4.84971C8.3238,4.84163,8.42883,4.70774,8.42421,4.52192C8.42075,4.36264,8.30417,4.25991,8.13913,4.25645C7.97638,4.25183,7.93945,4.16873,7.94753,4.02676C7.95523,3.90756,7.95369,3.78793,7.94291,3.66896C7.9256,3.49353,7.82259,3.37349,7.64715,3.36425Z"
        fill-opacity="1" />
    </g>
    <g>
      <path
        d="M8.949343381103516,14.474871875C9.146711381103515,13.632311875,9.331382381103516,12.787431875,9.550679381103516,11.950351874999999C9.623399381103516,11.674501875,9.524129381103515,11.645641874999999,9.303682381103515,11.660651875C9.149019381103516,11.671041875,8.994357381103516,11.662961875,8.839694381103516,11.662961875C8.253361781103516,11.662961875,8.251053881103516,11.661801875,8.523443381103515,11.160881875C8.981660381103516,10.317161875,9.441029381103515,9.473156875,9.982349381103516,8.638671875C9.982349381103516,9.128051875,9.996199381103516,9.617430875,9.976579381103516,10.106811875C9.966189381103515,10.369101875,10.035439381103515,10.471821875,10.313889381103516,10.451051875000001C10.645149381103515,10.426811875,10.981019381103515,10.441821875,11.314579381103515,10.447591875C11.403459381103517,10.448741875,11.523489381103516,10.396801875,11.577739381103516,10.492601875C11.633139381103515,10.589551875,11.528109381103516,10.664581875,11.478479381103515,10.739601875C10.812509381103515,11.769141874999999,10.143939381103516,12.796671875000001,9.475939381103515,13.825061875C9.327918381103515,14.051281875,9.180181381103516,14.277501874999999,9.031289381103516,14.503731875L8.949343381103516,14.474871875Z"
        fill-opacity="1" />
    </g>
  </g>
</svg>