<svg xmlns="http://www.w3.org/2000/svg" xmlns:xlink="http://www.w3.org/1999/xlink"
  version="1.1" width="20" height="20" viewBox="0 0 20 20">
  <defs>
    <clipPath id="master_svg0_61_04960">
      <rect x="0" y="0" width="20" height="20" rx="0" />
    </clipPath>
  </defs>
  <g clip-path="url(#master_svg0_61_04960)">
    <g>
      <path
        d="M20,14.9998296875C19.9988,17.5225296875,18.1179,19.6490296875,15.6142,19.9581296875L15.6142,19.9606296875L15.5975,19.9606296875C15.3993,19.9854296875,15.1998,19.9985296875,15,19.9998296875L4.20417,19.9998296875L4.20417,19.9956296875C4.19083,19.9964296875,4.18,19.9998296875,4.16667,19.9998296875C1.86548,19.9998296875,0,18.1343296875,0,15.8331296875C0,13.9789296875,1.21833,12.4273296875,2.89167,11.8864296875C3.55333,8.9014596875,6.2125,6.6664596875,9.39583,6.6664596875C11.7793,6.6673296875,13.9806,7.9416696875,15.1683,10.0081296875C17.8613,10.0971296875,19.9988,12.3053296875,20,14.9998296875ZM9.38,5.8331296875C12.1583,5.8331296875,14.5775,7.3481296875,15.8742,9.5931296875C16.1908,9.6039596875,16.4983,9.6456296875,16.7992,9.7064596875C17.2843,8.7669996875,17.5375,7.7248996875,17.5375,6.6672996875C17.5362,2.9862896875,14.5518,0.0029296875,10.8708,0.0029296875C7.18983,0.002930126339,4.20544,2.9862996875,4.20417,6.6672996875C4.20417,7.0606296875,4.245,7.4439596875,4.31,7.8181296875C5.68902,6.5404896875,7.50009,5.8314196875,9.38,5.8331296875Z"
        fill-opacity="1" />
    </g>
  </g>
</svg>